<svg width="76" height="76" viewBox="0 0 76 76" fill="none" xmlns="http://www.w3.org/2000/svg">
<circle r="38" transform="matrix(-1 0 0 1 38 38)" fill="white"/>
<mask id="mask0" mask-type="alpha" maskUnits="userSpaceOnUse" x="0" y="0" width="76" height="76">
<circle cx="38" cy="38" r="38" fill="white"/>
</mask>
<g mask="url(#mask0)">
<mask id="mask1" mask-type="alpha" maskUnits="userSpaceOnUse" x="20" y="20" width="36" height="70">
<path fill-rule="evenodd" clip-rule="evenodd" d="M44.4931 54.1975C50.881 51.6247 55.3898 45.3691 55.3898 38.0604C55.3898 28.4562 47.6041 20.6705 38 20.6705C28.3959 20.6705 20.6102 28.4562 20.6102 38.0604C20.6102 45.3691 25.119 51.6247 31.5069 54.1975L22.081 83.9344C21.2635 86.5133 23.1886 89.143 25.894 89.143H50.106C52.8114 89.143 54.7365 86.5133 53.919 83.9344L44.4931 54.1975Z" fill="white"/>
</mask>
<g mask="url(#mask1)">
<rect x="-3.38135" y="49.0476" width="57.6081" height="19.7361" transform="rotate(-45 -3.38135 49.0476)" fill="#FF4910"/>
<rect x="10.5742" y="63.0031" width="57.6081" height="19.7361" transform="rotate(-45 10.5742 63.0031)" fill="#FFBD21"/>
<rect x="24.5297" y="76.9587" width="57.6081" height="19.7361" transform="rotate(-45 24.5297 76.9587)" fill="#3C18A2"/>
</g>
</g>
<path d="M38 44C34.9027 44 29 43.5 22 38C28.5 32.5 34.9027 32 38 32L38 38L38 44Z" fill="white"/>
<path d="M38 32C41.0973 32 47 32.5 54 38C47.5 43.5 41.0973 44 38 44L38 38L38 32Z" fill="white"/>
<circle cx="38" cy="38" r="6" fill="#373737"/>
</svg>
